STARTFONT 2.1
FONT -Monotype-Plantin-Bold-I-Normal--36-360-75-75-P-236-iso8859-5
SIZE 36 75 75
FONTBOUNDINGBOX 55 42 -8 -8

STARTPROPERTIES 24
FOUNDRY "Monotype"
FAMILY_NAME "Plantin"
WEIGHT_NAME "Bold"
SLANT "I"
SETWIDTH_NAME "Normal"
ADD_STYLE_NAME ""
PIXEL_SIZE 36
POINT_SIZE 360
RESOLUTION_X 75
RESOLUTION_Y 75
SPACING "P"
AVERAGE_WIDTH 236
CHARSET_REGISTRY "iso8859"
CHARSET_ENCODING "5"
FACE_NAME "Plantin Bold Inclined ISO Latin Cyrillic"
_DEC_DEVICE_FONTNAMES "PS=plantin-bin-latcyrillic"
COPYRIGHT "Copyright (c) 1993 Monotype Typography Ltd."
CAP_HEIGHT 28
X_HEIGHT 18
WEIGHT 10
QUAD_WIDTH 28
DEFAULT_CHAR 160
FONT_DESCENT 8
FONT_ASCENT 34
ENDPROPERTIES

CHARS 191

STARTCHAR space
ENCODING 32
SWIDTH 250 0
DWIDTH 10 0
BBX 0 0 0 0
BITMAP
ENDCHAR

STARTCHAR exclam
ENCODING 33
SWIDTH 365 0
DWIDTH 14 0
BBX 13 27 2 0
BITMAP
00F0
01F8
01F8
01F0
01F0
01F0
03E0
03E0
03C0
03C0
0380
0780
0700
0700
0600
0600
0400
0C00
0000
0000
0000
7800
FC00
FC00
FC00
FC00
7800
ENDCHAR

STARTCHAR quotedbl
ENCODING 34
SWIDTH 552 0
DWIDTH 21 0
BBX 15 13 7 13
BITMAP
180C
3C1E
7C3E
7C3E
7C3E
F87C
F87C
F078
F070
E070
C060
C060
8040
ENDCHAR

STARTCHAR numbersign
ENCODING 35
SWIDTH 500 0
DWIDTH 19 0
BBX 17 26 1 0
BITMAP
030300
030300
070700
070700
060600
060600
060600
0E0E00
FFFF80
FFFF80
0C0C00
0C1C00
1C1C00
1C1C00
1C1800
181800
FFFF80
FFFF80
383800
303000
303000
307000
707000
707000
606000
606000
ENDCHAR

STARTCHAR dollar
ENCODING 36
SWIDTH 542 0
DWIDTH 21 0
BBX 21 29 1 -3
BITMAP
000300
007F00
01FFC0
03C6E0
078C70
070C78
0F0C78
0F9878
0F9800
0FD800
07F000
07F800
03FC00
01FE00
007F00
007F80
00DF80
00CF80
F0C780
F18780
F18780
718F00
730E00
3B3C00
1FF800
07C000
060000
060000
0C0000
ENDCHAR

STARTCHAR percent
ENCODING 37
SWIDTH 833 0
DWIDTH 32 0
BBX 30 28 1 -2
BITMAP
07E00078
1E7000F0
3C7801E0
3C7801C0
7C780380
F8F80780
F8F80F00
F8F81E00
F8F83C00
F9F07800
F1F0F000
F1E1E000
73C1C000
1F038000
000783F0
000F0738
001E1E3C
003C1E3C
00783E3C
00F07C7C
01E07C7C
01C07C7C
03C07C7C
07807C78
0F0078F8
1E0078F0
3C003DE0
78001F80
ENDCHAR

STARTCHAR ampersand
ENCODING 38
SWIDTH 958 0
DWIDTH 36 0
BBX 34 27 3 0
BITMAP
001FE00000
00FFF80000
01F87C0000
03E07C0000
07E07C0000
07C03C0F00
07C0000F80
07C0000FC0
07E00003C0
01F03F80C0
03F07FE0C0
0F80FFF0C0
3F01FFFF80
7E0187FF80
7C0301FF00
FC0301DC00
FC03E0C000
FC03E0C000
FC01E0C000
FC00C0C000
FE00018000
7F00018000
3F80070000
3FF01E0000
0FFFFC0000
07FFF00000
00FF800000
ENDCHAR

STARTCHAR quoteright
ENCODING 39
SWIDTH 365 0
DWIDTH 14 0
BBX 8 12 4 15
BITMAP
0C
3E
3F
3F
3F
0F
0F
0E
1E
3C
F0
C0
ENDCHAR

STARTCHAR parenleft
ENCODING 40
SWIDTH 437 0
DWIDTH 17 0
BBX 17 33 4 -7
BITMAP
000780
001F00
007C00
00F800
01F000
03E000
07E000
0FC000
0F8000
1F8000
1F0000
3F0000
3E0000
7E0000
7E0000
7C0000
7C0000
FC0000
FC0000
F80000
F80000
F80000
F80000
780000
780000
780000
780000
380000
380000
1C0000
0C0000
060000
020000
ENDCHAR

STARTCHAR parenright
ENCODING 41
SWIDTH 437 0
DWIDTH 17 0
BBX 17 33 -4 -7
BITMAP
003000
003800
001800
001C00
000E00
000E00
000F00
000F00
000F00
000F80
000F80
000F80
000F80
000F80
001F80
001F80
001F00
001F00
003F00
003F00
007E00
007E00
007C00
00FC00
00F800
01F800
03F000
03E000
07C000
0F8000
3E0000
7C0000
E00000
ENDCHAR

STARTCHAR asterisk
ENCODING 42
SWIDTH 510 0
DWIDTH 19 0
BBX 16 17 3 9
BITMAP
00E0
00C0
01C0
C1C0
F3C0
7FC0
3FF0
1FFF
0FFF
1FFE
3FE0
7FE0
7DE0
F1E0
40E0
0060
0060
ENDCHAR

STARTCHAR plus
ENCODING 43
SWIDTH 667 0
DWIDTH 25 0
BBX 20 20 3 3
BITMAP
00F000
00F000
00F000
00F000
00F000
00F000
00F000
00F000
FFFFF0
FFFFF0
FFFFF0
FFFFF0
00F000
00F000
00F000
00F000
00F000
00F000
00F000
00F000
ENDCHAR

STARTCHAR comma
ENCODING 44
SWIDTH 365 0
DWIDTH 14 0
BBX 9 12 0 -7
BITMAP
1F00
1F80
1F80
1F80
1F80
0F80
0700
0700
0E00
1C00
7800
E000
ENDCHAR

STARTCHAR minus
ENCODING 45
SWIDTH 667 0
DWIDTH 25 0
BBX 21 4 2 11
BITMAP
FFFFF8
FFFFF8
FFFFF8
FFFFF8
ENDCHAR

STARTCHAR period
ENCODING 46
SWIDTH 292 0
DWIDTH 11 0
BBX 6 6 2 0
BITMAP
78
FC
FC
FC
FC
78
ENDCHAR

STARTCHAR slash
ENCODING 47
SWIDTH 281 0
DWIDTH 11 0
BBX 19 27 -3 -1
BITMAP
0000E0
0001C0
000180
000380
000300
000700
000E00
000C00
001C00
003800
003000
007000
006000
00E000
01C000
018000
038000
070000
070000
0E0000
0C0000
1C0000
380000
300000
700000
600000
E00000
ENDCHAR

STARTCHAR zero
ENCODING 48
SWIDTH 542 0
DWIDTH 21 0
BBX 19 25 2 0
BITMAP
007C00
01FF00
03C380
07C3C0
0F83C0
1F83E0
1F03E0
3F03E0
3F03E0
3E07E0
7E07E0
7E07C0
7C07C0
7C0FC0
FC0FC0
FC0F80
F81F80
F81F80
F81F00
783E00
783E00
787C00
3C7800
1FF000
078000
ENDCHAR

STARTCHAR one
ENCODING 49
SWIDTH 542 0
DWIDTH 21 0
BBX 15 25 3 0
BITMAP
000E
003E
00FC
0FFC
0FFC
00FC
00F8
00F8
01F8
01F8
01F0
01F0
03F0
03E0
03E0
03E0
07E0
07C0
07C0
0FC0
0FC0
1FC0
3FE0
FFF8
FFF0
ENDCHAR

STARTCHAR two
ENCODING 50
SWIDTH 542 0
DWIDTH 21 0
BBX 22 25 -1 0
BITMAP
001FC0
00FFF0
01FFF8
0383F8
0600FC
0000FC
0000FC
0000FC
0000F8
0000F8
0001F0
0003E0
0007C0
000F80
001E00
003C00
007800
00E000
01C000
070030
0C0060
1FFFE0
3FFFE0
7FFFE0
FFFFE0
ENDCHAR

STARTCHAR three
ENCODING 51
SWIDTH 542 0
DWIDTH 21 0
BBX 21 25 -1 0
BITMAP
000FE0
003FF0
00FFF8
01E1F8
0080F8
000078
000078
0000F0
0000E0
0001C0
000700
00FF80
00FFC0
000FC0
0007E0
0003E0
0003E0
0003E0
0003E0
0007C0
000780
600F00
F83E00
FFF800
1FC000
ENDCHAR

STARTCHAR four
ENCODING 52
SWIDTH 542 0
DWIDTH 21 0
BBX 20 25 1 0
BITMAP
0003F0
0007E0
000FE0
001FE0
003BC0
0067C0
00CFC0
018FC0
030F80
060F80
0C1F80
181F00
301F00
403F00
FFFFF0
FFFFE0
FFFFE0
007E00
007C00
007C00
00FC00
00FC00
00F800
00F800
01F800
ENDCHAR

STARTCHAR five
ENCODING 53
SWIDTH 542 0
DWIDTH 21 0
BBX 21 27 1 0
BITMAP
000010
000018
007FF0
00FFF0
00FFF0
00FFE0
018000
018000
030000
03F000
03FC00
07FE00
07FF00
03FF80
003F80
000FC0
0007C0
0007C0
0003C0
0003C0
000380
000380
000700
E00F00
FC1C00
FFF800
7FC000
ENDCHAR

STARTCHAR six
ENCODING 54
SWIDTH 542 0
DWIDTH 21 0
BBX 22 25 2 0
BITMAP
0001F8
000FFC
007F00
00FC00
03F000
07E000
0FC000
1F8000
1F0000
3E3800
7FFE00
7FFF00
7E0F80
FC07C0
FC07C0
FC07C0
F807C0
F80FC0
F80FC0
780F80
781F80
381F00
3C3E00
1FF800
07E000
ENDCHAR

STARTCHAR seven
ENCODING 55
SWIDTH 542 0
DWIDTH 21 0
BBX 18 25 4 0
BITMAP
1FFFC0
3FFF80
3FFF80
3FFF00
700700
600600
C00E00
001C00
001800
003800
003000
007000
006000
00C000
01C000
018000
038000
030000
070000
0E0000
0C0000
1C0000
180000
380000
700000
ENDCHAR

STARTCHAR eight
ENCODING 56
SWIDTH 542 0
DWIDTH 21 0
BBX 20 25 2 0
BITMAP
007F00
01FFC0
03C1E0
0780F0
0F0070
0F0070
0F8070
0FC0F0
0FE1E0
07F3C0
03FF00
03FC00
03FC00
1FFE00
3C7F00
783F80
F01F80
F00F80
E00F80
E00F80
E00F00
701E00
703C00
1FF800
07C000
ENDCHAR

STARTCHAR nine
ENCODING 57
SWIDTH 542 0
DWIDTH 21 0
BBX 22 25 -1 0
BITMAP
001F80
007FE0
01F0F0
03E078
07E078
07C078
0FC07C
0FC07C
0F807C
0F80FC
0F80FC
0F80FC
07C1F8
03FFF8
01FFF8
0073F0
0007E0
0007E0
000FC0
001F80
003F00
00FC00
03F000
FFC000
7C0000
ENDCHAR

STARTCHAR colon
ENCODING 58
SWIDTH 365 0
DWIDTH 14 0
BBX 10 17 2 0
BITMAP
0780
0FC0
0FC0
0FC0
0FC0
0780
0000
0000
0000
0000
0000
7800
FC00
FC00
FC00
FC00
7800
ENDCHAR

STARTCHAR semicolon
ENCODING 59
SWIDTH 365 0
DWIDTH 14 0
BBX 12 24 0 -7
BITMAP
01E0
03F0
03F0
03F0
03F0
01E0
0000
0000
0000
0000
0000
0000
1F00
1F80
1F80
1F80
1F80
0780
0700
0700
0E00
1C00
7800
E000
ENDCHAR

STARTCHAR less
ENCODING 60
SWIDTH 667 0
DWIDTH 25 0
BBX 21 21 2 2
BITMAP
000008
000038
0001F8
0007F8
003FF0
00FFC0
03FE00
1FF800
7FC000
FF0000
FC0000
FF0000
7FE000
1FF800
03FF00
00FFC0
001FF8
0007F8
0001F8
000038
000008
ENDCHAR

STARTCHAR equal
ENCODING 61
SWIDTH 667 0
DWIDTH 25 0
BBX 21 13 2 6
BITMAP
FFFFF8
FFFFF8
FFFFF8
FFFFF8
000000
000000
000000
000000
000000
FFFFF8
FFFFF8
FFFFF8
FFFFF8
ENDCHAR

STARTCHAR greater
ENCODING 62
SWIDTH 667 0
DWIDTH 25 0
BBX 21 21 2 2
BITMAP
800000
F00000
FC0000
FF8000
7FE000
1FF800
03FF00
00FFC0
001FF8
0006F8
0001F8
0007F8
003FF0
00FFC0
03FE00
1FF800
7FE000
FF0000
FC0000
F00000
800000
ENDCHAR

STARTCHAR question
ENCODING 63
SWIDTH 510 0
DWIDTH 19 0
BBX 16 27 2 -1
BITMAP
03E0
07F8
07FC
07FE
03FE
0007
0003
0003
0003
0007
000F
07FE
0FFE
0FFC
0FFC
0FF8
1FE0
1C00
1800
0000
0000
7800
FC00
FC00
FC00
FC00
7800
ENDCHAR

STARTCHAR at
ENCODING 64
SWIDTH 833 0
DWIDTH 32 0
BBX 31 33 0 -8
BITMAP
000FFC00
003C0700
00E000C0
03800060
07000030
0E000010
0C000008
18000008
3803DF0C
30072E04
700E2E04
601C3E04
603C3E04
E0783C04
C0783C04
C0F87C04
C0F07808
C0F07808
C1F0F808
C1F1F810
C1F17030
41F2F020
61FCF042
60F8F982
20F07E04
30000004
18000008
08000010
04000020
030000C0
01800180
00700E00
000FF000
ENDCHAR

STARTCHAR A
ENCODING 65
SWIDTH 708 0
DWIDTH 27 0
BBX 27 26 -2 0
BITMAP
000007E0
00000FE0
00001FE0
00001FE0
00003FE0
00006FC0
0000CFC0
00018FC0
00038FC0
00070FC0
000E0FC0
000C1FC0
00181FC0
00301FC0
00601F80
00FFFF80
00FFFF80
01801F80
03801F80
07001F80
0E001F80
0E003F80
1E003F80
3F007FC0
FF81FFE0
FF81FFE0
ENDCHAR

STARTCHAR B
ENCODING 66
SWIDTH 750 0
DWIDTH 29 0
BBX 29 26 -1 0
BITMAP
01FFFF00
01FFFFE0
00FF07F0
007F03F8
007E01F8
007E01F8
00FE01F8
00FC01F8
00FC03F8
01FC07F0
01F80FE0
01FFFD80
01FFFE00
03F81F80
03F80FC0
03F007E0
03F007E0
07F007F0
07F007F0
07E007F0
0FE007E0
0FE00FE0
1FE01FC0
3FF07F80
7FFFFF00
FFFFF800
ENDCHAR

STARTCHAR C
ENCODING 67
SWIDTH 750 0
DWIDTH 29 0
BBX 28 27 3 -1
BITMAP
0003FC00
001FFF80
007E07E0
01F803F0
03F001F0
07E000E0
0FC000E0
1FC000E0
1F8000E0
3F800000
7F000000
7F000000
7E000000
FE000000
FE000000
FE000000
FE000000
FE000000
FE000780
7E000700
7E000F00
7F000F00
3F001E00
1F807E00
0FE0FC00
03FFF000
00FF8000
ENDCHAR

STARTCHAR D
ENCODING 68
SWIDTH 802 0
DWIDTH 30 0
BBX 30 26 0 0
BITMAP
03FFFC00
03FFFF80
00FF0FC0
00FF07E0
007E03F0
00FE03F0
00FE01F8
00FC01F8
00FC01F8
01FC01FC
01FC01FC
01F801FC
01F801FC
03F801FC
03F801FC
03F001F8
03F003F8
07F003F8
07E003F0
07E007F0
0FE00FE0
0FE01FC0
1FE03F80
3FF0FF00
7FFFFE00
FFFFF000
ENDCHAR

STARTCHAR E
ENCODING 69
SWIDTH 740 0
DWIDTH 28 0
BBX 30 26 0 0
BITMAP
03FFFFFC
03FFFFF8
01FE0078
00FE0078
00FE0038
00FE0038
00FC0000
00FC0000
01FC0180
01F80380
01F80F00
01FFFF00
03FFFF00
03F01E00
03F00E00
07F00E00
07E00600
07E00000
07E00000
0FE000E0
0FC001C0
0FC003C0
1FE00FC0
3FE03F80
FFFFFF80
FFFFFF00
ENDCHAR

STARTCHAR F
ENCODING 70
SWIDTH 667 0
DWIDTH 25 0
BBX 28 26 0 0
BITMAP
03FFFFF0
03FFFFF0
00FF01F0
00FE00E0
00FE00E0
00FE0060
00FC0000
00FC0000
01FC0300
01F80600
01F81E00
01FFFE00
03FFFE00
03F03C00
03F01C00
07F01C00
07F00C00
07E00000
07E00000
0FE00000
0FE00000
0FE00000
1FE00000
3FF00000
7FF80000
FFF80000
ENDCHAR

STARTCHAR G
ENCODING 71
SWIDTH 833 0
DWIDTH 32 0
BBX 30 26 3 0
BITMAP
0003FF00
001FFFE0
00FF01F8
01FC00F8
07F00078
0FE00078
1FC00030
1FC00030
3F800000
3F000000
7F000000
7F000000
FE000000
FE007FFC
FE003FF0
FE001FE0
FE001FC0
FE001FC0
7E001F80
7E001F80
7F003F80
3F003F80
1F803F00
0FE07F00
03FFFF00
007FE000
ENDCHAR

STARTCHAR H
ENCODING 72
SWIDTH 844 0
DWIDTH 32 0
BBX 34 26 1 0
BITMAP
03FF83FFC0
07FF83FF80
01FE01FF00
01FC00FE00
01FC00FC00
01FC00FC00
01F801FC00
01F801F800
03F801F800
03F803F800
03F003F800
03F003F000
07FFFFF000
07FFFFF000
07E007E000
0FE007E000
0FE007E000
0FC00FE000
0FC00FC000
1FC00FC000
1FC01FC000
1F801F8000
3F801FC000
7FC03FC000
FFE0FFF000
FFE0FFE000
ENDCHAR

STARTCHAR I
ENCODING 73
SWIDTH 417 0
DWIDTH 16 0
BBX 19 26 0 0
BITMAP
01FFE0
03FFC0
00FF80
00FF00
00FE00
00FE00
00FC00
00FC00
01FC00
01FC00
01F800
01F800
03F800
03F000
03F000
03F000
07F000
07E000
07E000
0FE000
0FE000
0FC000
1FE000
3FE000
FFF800
FFF800
ENDCHAR

STARTCHAR J
ENCODING 74
SWIDTH 396 0
DWIDTH 15 0
BBX 27 33 -8 -7
BITMAP
0003FFE0
0007FFE0
0001FF80
0000FF00
0000FE00
0000FE00
0000FE00
0000FC00
0001FC00
0001FC00
0001F800
0001F800
0003F800
0003F000
0003F000
0007F000
0007F000
0007E000
0007E000
000FE000
000FC000
000FC000
000FC000
001FC000
001F8000
001F8000
001F8000
783F0000
F83F0000
FC7E0000
FC7C0000
7FF80000
3FE00000
ENDCHAR

STARTCHAR K
ENCODING 75
SWIDTH 740 0
DWIDTH 28 0
BBX 32 26 0 0
BITMAP
03FFE0FF
03FFE1FF
00FF807C
00FF0078
00FE00F0
00FE01C0
00FC0380
00FC0700
01FC1C00
01F83800
01F8E000
01FBE000
03FBF000
03F7F000
03F3F800
07F3FC00
07F1FC00
07E0FE00
07E0FE00
0FE07F00
0FC07F00
0FC03F80
1FE03FC0
3FE01FE0
7FF80FF0
FFF80FF0
ENDCHAR

STARTCHAR L
ENCODING 76
SWIDTH 667 0
DWIDTH 25 0
BBX 26 26 0 0
BITMAP
01FFE000
03FFE000
00FF8000
00FF0000
00FE0000
00FE0000
00FC0000
00FC0000
01FC0000
01FC0000
01F80000
01F80000
03F80000
03F00000
03F00000
07F00000
07F00000
07E00000
07E00000
0FE001C0
0FC00380
0FC00780
1FC01F00
3FE07F00
7FFFFE00
FFFFFE00
ENDCHAR

STARTCHAR M
ENCODING 77
SWIDTH 979 0
DWIDTH 37 0
BBX 39 26 -1 0
BITMAP
00FFC003FE
00FFC003FE
003FC007FC
003FC007F8
003FC00FF0
003FC01FF0
002FC01BE0
006FC037E0
004FC077E0
00CFE067E0
00CFE0C7E0
018FE1C7E0
0187E18FE0
0107E30FE0
0307E60FC0
0307F60FC0
0607F40FC0
0607F80FC0
0C03F80FC0
0C03F00FC0
0C03F01FC0
1C03E01FC0
3C03C01FC0
7E03C03FE0
FF0380FFF0
FF0380FFE0
ENDCHAR

STARTCHAR N
ENCODING 78
SWIDTH 812 0
DWIDTH 31 0
BBX 34 26 0 0
BITMAP
07F8007FC0
07FC007F80
01FE001F00
00FE001E00
00FF000C00
00FF000C00
00DF801C00
01BF801800
019FC01800
019FC01800
018FE03000
030FF03000
0307F03000
0303F83000
0303F86000
0601FC6000
0601FC6000
0600FE4000
0600FFC000
0C007FC000
0C007FC000
0C003F8000
1C001FC000
3E001FC000
FF800FE000
FF800FE000
ENDCHAR

STARTCHAR O
ENCODING 79
SWIDTH 854 0
DWIDTH 32 0
BBX 29 27 3 -1
BITMAP
0007F800
003FFE00
00FE1F80
01F807C0
07F007E0
0FE003F0
0FC003F0
1FC003F0
3F8003F8
3F8003F8
7F0003F8
7F0003F8
7F0003F8
FF0003F0
FE0007F0
FE0007F0
FE0007F0
FE000FE0
FE000FE0
7E001FC0
7E001F80
3F003F80
3F003F00
1F80FC00
0FC1F800
03FFE000
00FF0000
ENDCHAR

STARTCHAR P
ENCODING 80
SWIDTH 677 0
DWIDTH 26 0
BBX 29 26 0 0
BITMAP
01FFFF00
03FFFFC0
00FF0FE0
007F03F0
007E03F8
007E03F8
00FE03F8
00FE03F8
00FC03F8
00FC07F0
01FC07F0
01F80FE0
01F83FC0
01FBFF00
03FBFC00
03F00000
03F00000
07F00000
07F00000
07E00000
07E00000
0FE00000
1FE00000
3FF00000
7FFC0000
FFFC0000
ENDCHAR

STARTCHAR Q
ENCODING 81
SWIDTH 854 0
DWIDTH 32 0
BBX 29 34 3 -8
BITMAP
0007F800
003FFE00
00FE1F80
01F807C0
07F007E0
0FE003F0
0FC003F0
1FC003F0
3F8003F8
3F8003F8
7F0003F8
7F0003F8
7F0003F8
FF0003F8
FE0007F0
FE0007F0
FE0007F0
FE000FE0
FE000FE0
7E001FC0
7E001F80
7F003F80
3F003E00
1F80FC00
0FC1F800
07FFE000
03FF0000
00FF0000
007FE000
003FFFF0
000FFFE0
0007FFC0
0000FF80
00001E00
ENDCHAR

STARTCHAR R
ENCODING 82
SWIDTH 781 0
DWIDTH 30 0
BBX 30 26 0 0
BITMAP
03FFFF80
03FFFFE0
01FE07F0
00FE03F8
00FE01FC
00FC01FC
00FC01FC
01FC01FC
01F801FC
01F803F8
03F807F0
03F00FE0
03FFFFC0
03FFFC00
07F0FC00
07E0FC00
07E0FE00
07E07E00
0FE07E00
0FC07F00
0FC03F00
1FC03F80
1FC03F80
3FC01FC0
FFF01FE0
FFF00FE0
ENDCHAR

STARTCHAR S
ENCODING 83
SWIDTH 625 0
DWIDTH 24 0
BBX 25 26 0 0
BITMAP
001FF800
007FFE00
00FC1F80
01F00F80
01F00780
03F00700
03F00300
03F80000
03FC0000
01FF0000
01FF8000
00FFC000
007FE000
003FF000
001FF800
0007F800
0003FC00
0001FC00
7001FC00
F000FC00
F000FC00
F800F800
FC01F800
7E07F000
1FFFC000
03FE0000
ENDCHAR

STARTCHAR T
ENCODING 84
SWIDTH 729 0
DWIDTH 28 0
BBX 28 26 4 0
BITMAP
3FFFFFF0
7FFFFFE0
7C1F83E0
781F81E0
E03F80E0
E03F80E0
003F0000
003F0000
007F0000
007E0000
007E0000
00FE0000
00FE0000
00FC0000
00FC0000
01FC0000
01F80000
01F80000
01F80000
03F80000
03F00000
07F00000
07F00000
0FF80000
3FFE0000
7FFE0000
ENDCHAR

STARTCHAR U
ENCODING 85
SWIDTH 792 0
DWIDTH 30 0
BBX 29 27 4 -1
BITMAP
7FFC0FF8
7FFC0FF0
3FF007E0
1FE003C0
1FC00380
1FC00380
1F800380
1F800300
3F800300
3F000300
3F000600
3F000600
7F000600
7E000600
7E000E00
FE000C00
FE000C00
FC000C00
FC001800
FC001800
FC003800
FE003000
7E007000
3F81E000
1FFFC000
0FFF0000
01F80000
ENDCHAR

STARTCHAR V
ENCODING 86
SWIDTH 719 0
DWIDTH 27 0
BBX 26 27 6 -1
BITMAP
FFF07FC0
FFE07FC0
7FC03F00
3F801E00
3F001C00
3F001C00
3F003800
3F003000
3F006000
3F006000
3F00C000
3F018000
3F038000
3F030000
3F060000
3F0C0000
3F1C0000
3F180000
3F300000
3F600000
7F400000
7FC00000
7F800000
7F000000
7E000000
7E000000
7C000000
ENDCHAR

STARTCHAR W
ENCODING 87
SWIDTH 969 0
DWIDTH 37 0
BBX 37 27 4 -1
BITMAP
7FE3FF87F8
FFC3FF87F8
7F81FE03F0
3F80FE03C0
3F80FC01C0
3F00FC0380
3F80FC0300
3F80FC0300
3F80FC0600
3F80FC0600
3F81FE0C00
3F81FE1C00
1F837E1800
1F86FE3000
1F867E3000
1F8C7E6000
1F9C7E6000
1F987EC000
1FB07EC000
1FB07E8000
1FE07F8000
1FC07F0000
1FC07E0000
1F807E0000
1F007C0000
1F007C0000
1E00780000
ENDCHAR

STARTCHAR X
ENCODING 88
SWIDTH 771 0
DWIDTH 29 0
BBX 32 26 0 0
BITMAP
03FFE1FF
03FFE1FF
00FF80FC
007F0078
007F00F0
003F80C0
003F8180
001FC700
001FCE00
000FEC00
000FF000
0007F000
0007F000
0003F800
0007F800
000EFC00
0019FC00
0030FE00
00E0FE00
01C07F00
03807F00
07003F80
1F003FC0
3F807FE0
FFC0FFF0
FF80FFE0
ENDCHAR

STARTCHAR Y
ENCODING 89
SWIDTH 677 0
DWIDTH 26 0
BBX 25 26 4 0
BITMAP
FFE07F80
FFE07F80
7F803F00
3F801E00
3F801C00
1F803800
1F803000
1FC07000
0FC0E000
0FC1C000
0FC18000
0FE30000
07E70000
07EE0000
07F40000
03F80000
03F80000
03F00000
07F00000
07F00000
07E00000
0FE00000
0FF00000
1FF00000
7FFC0000
7FFC0000
ENDCHAR

STARTCHAR Z
ENCODING 90
SWIDTH 687 0
DWIDTH 26 0
BBX 27 26 1 0
BITMAP
01FFFFE0
03FFFFE0
03E03FC0
03807FC0
0700FF80
0600FF00
0001FE00
0003FC00
0007F800
000FF000
001FF000
003FE000
003FC000
007F8000
00FF0000
01FE0000
03FC0000
07FC0000
0FF80000
0FF00300
1FE00700
3FC00E00
7F803E00
FF00FE00
FFFFFC00
FFFFFC00
ENDCHAR

STARTCHAR bracketleft
ENCODING 91
SWIDTH 385 0
DWIDTH 15 0
BBX 19 33 0 -7
BITMAP
003FE0
003FE0
007E00
007C00
007C00
00FC00
00F800
00F800
01F800
01F000
01F000
01F000
03E000
03E000
03E000
07E000
07C000
07C000
0FC000
0F8000
0F8000
1F8000
1F0000
1F0000
3F0000
3E0000
3E0000
3E0000
7E0000
7C0000
7E0000
FF8000
FF8000
ENDCHAR

STARTCHAR backslash
ENCODING 92
SWIDTH 281 0
DWIDTH 11 0
BBX 5 27 3 -1
BITMAP
C0
C0
C0
E0
E0
E0
60
60
60
60
60
60
60
60
70
70
70
30
30
30
30
30
30
30
38
38
38
ENDCHAR

STARTCHAR bracketright
ENCODING 93
SWIDTH 385 0
DWIDTH 15 0
BBX 20 33 -4 -7
BITMAP
001FF0
003FE0
0007E0
0007E0
0007C0
0007C0
000FC0
000F80
000F80
001F80
001F00
001F00
003F00
003E00
003E00
003E00
007E00
007C00
007C00
00FC00
00F800
00F800
01F800
01F000
01F000
03F000
03E000
03E000
03E000
07E000
0FC000
7FC000
FFC000
ENDCHAR

STARTCHAR asciicircum
ENCODING 94
SWIDTH 573 0
DWIDTH 22 0
BBX 16 14 3 12
BITMAP
0180
0180
03C0
07E0
0760
0E70
0C70
1C38
3838
381C
701E
700E
E007
E007
ENDCHAR

STARTCHAR underscore
ENCODING 95
SWIDTH 500 0
DWIDTH 19 0
BBX 19 2 0 -7
BITMAP
FFFFE0
FFFFE0
ENDCHAR

STARTCHAR quoteleft
ENCODING 96
SWIDTH 365 0
DWIDTH 14 0
BBX 8 12 7 15
BITMAP
03
0F
3C
70
60
F0
F0
FC
FC
FC
7C
38
ENDCHAR

STARTCHAR a
ENCODING 97
SWIDTH 594 0
DWIDTH 23 0
BBX 20 17 2 0
BITMAP
00FC70
03FEE0
0787E0
1F07E0
1E07C0
3E07C0
7C07C0
7C0780
F80F80
F80F80
F81F00
F83F00
FC7F30
FFEF60
FFDFC0
7F9FC0
3E0F00
ENDCHAR

STARTCHAR b
ENCODING 98
SWIDTH 615 0
DWIDTH 23 0
BBX 20 26 2 0
BITMAP
01F000
1FE000
3FE000
07C000
07C000
07C000
0F8000
0F8000
0F8000
1F1F00
1F7FC0
1F7FE0
3F87E0
3F03F0
3E03F0
7E03F0
7C03F0
7C03E0
FC03E0
F807E0
F807C0
F80F80
781F00
7C3E00
3FFC00
07E000
ENDCHAR

STARTCHAR c
ENCODING 99
SWIDTH 500 0
DWIDTH 19 0
BBX 17 17 1 0
BITMAP
00FE00
07FF80
0F8F80
1F0780
3E0780
7C0300
7C0000
F80000
F80000
F80000
F80000
FC0000
FC0700
FF1E00
7FFC00
3FF000
0FC000
ENDCHAR

STARTCHAR d
ENCODING 100
SWIDTH 625 0
DWIDTH 24 0
BBX 24 26 2 0
BITMAP
000007
0001FE
0003FE
00007E
00007E
00007C
00007C
0000FC
0000F8
00FCF8
03FFF8
0787F0
1F03F0
1E03F0
3E03E0
7C03E0
7C07E0
F807C0
F807C0
F80FC0
F80F80
FC1F9C
FC7FB8
7FEFF0
7FCFE0
1F0780
ENDCHAR

STARTCHAR e
ENCODING 101
SWIDTH 510 0
DWIDTH 19 0
BBX 18 18 1 0
BITMAP
003F00
00FF80
03C7C0
0783C0
0F03C0
1E03C0
3E0780
3E0F00
7C3E00
7FFC00
FFE000
FC0000
FC0000
7E0380
7F0F00
7FFE00
3FF800
0FE000
ENDCHAR

STARTCHAR f
ENCODING 102
SWIDTH 333 0
DWIDTH 13 0
BBX 26 33 -7 -7
BITMAP
00001F80
00003FC0
000073C0
0000F3C0
0001F180
0003E000
0003E000
0007E000
0007C000
003FF800
003FF800
000FC000
000F8000
000F8000
001F8000
001F0000
001F0000
003F0000
003F0000
003E0000
003E0000
007E0000
007C0000
007C0000
007C0000
00F80000
00F80000
00F00000
30F00000
79E00000
F9C00000
7F800000
3E000000
ENDCHAR

STARTCHAR g
ENCODING 103
SWIDTH 594 0
DWIDTH 23 0
BBX 24 24 -2 -7
BITMAP
003F8F
00FFFF
01F0F7
03E079
07E07C
07C07C
07C07C
07C0FC
03C0FC
01E1F8
00FFF0
03FFC0
0F0000
1F0000
1FFF00
1FFFE0
0FFFF0
07FFF0
3FFFF0
F800F0
F000E0
F801C0
7FFF80
0FFC00
ENDCHAR

STARTCHAR h
ENCODING 104
SWIDTH 625 0
DWIDTH 24 0
BBX 22 26 1 0
BITMAP
003800
0FF800
0FF000
01F000
01F000
03E000
03E000
03E000
07E000
07C0F0
07C3F8
0FCFF8
0F9CF8
0FB8F8
1FB1F8
1F61F0
1FC1F0
3F83E0
3F83E0
3F07E0
3E07C0
7E0FCC
7C0F98
7C0FF0
F80FE0
F80FC0
ENDCHAR

STARTCHAR i
ENCODING 105
SWIDTH 333 0
DWIDTH 13 0
BBX 14 27 0 0
BITMAP
0030
0078
00FC
00FC
0078
0030
0000
0000
0000
0000
0F80
1FC0
3FC0
67C0
C7C0
0F80
0F80
0F80
1F00
1F00
3E00
3E00
3E70
7EE0
7FC0
7F80
3E00
ENDCHAR

STARTCHAR j
ENCODING 106
SWIDTH 323 0
DWIDTH 12 0
BBX 20 33 -6 -7
BITMAP
0000C0
0001E0
0003F0
0003F0
0001E0
0000C0
000000
000000
000000
000F00
003F80
007F80
00CF80
018F80
001F80
001F00
001F00
003F00
003E00
003E00
003E00
007E00
007C00
007C00
00FC00
00F800
00F800
00F000
61F000
F1E000
FBC000
FF8000
3E0000
ENDCHAR

STARTCHAR k
ENCODING 107
SWIDTH 625 0
DWIDTH 24 0
BBX 23 26 0 0
BITMAP
00FC00
0FF800
0FF800
01F000
01F000
01F000
03E000
03E000
07E000
07E3F0
07CFFC
07DFFC
0F98FC
0FE07C
0FC07C
1F80F8
1F01F0
1F0FC0
3FFF00
3E1F80
3E0F80
7E0FC6
7C07CC
7C07F8
FC03F0
F801E0
ENDCHAR

STARTCHAR l
ENCODING 108
SWIDTH 302 0
DWIDTH 11 0
BBX 12 26 1 0
BITMAP
0030
0FF0
1FE0
03E0
03E0
03E0
07C0
07C0
07C0
0F80
0F80
0F80
1F00
1F00
1F00
3E00
3E00
3E00
7C00
7C00
7C00
F8C0
F980
FF00
FE00
7800
ENDCHAR

STARTCHAR m
ENCODING 109
SWIDTH 1000 0
DWIDTH 38 0
BBX 37 17 0 0
BITMAP
07807803E0
1FC1FE0FE0
3FC7FE1FF0
67CE3E31F0
C7DC3E61F0
0FD83EC3F0
0FB07D83E0
0FE07F03E0
1FC07F07C0
1F80FE07C0
1F80FC0F80
3F00FC0F80
3F01F81F18
3E01F81F30
7E01F01FE0
7C03F01FC0
7C03E00F80
ENDCHAR

STARTCHAR n
ENCODING 110
SWIDTH 635 0
DWIDTH 24 0
BBX 23 17 0 0
BITMAP
0780F0
1FC3F8
3FC7FC
67CC7C
C7D87C
0FF0FC
0FA0F8
0FE0F8
1FC1F0
1F81F0
1F83F0
3F03E0
3F07E6
3E07CC
3E07F8
7C07F0
7C03E0
ENDCHAR

STARTCHAR o
ENCODING 111
SWIDTH 573 0
DWIDTH 22 0
BBX 19 18 1 0
BITMAP
00FC00
07FF00
0F8780
1F07C0
3E03C0
7E03E0
7C03E0
FC03E0
FC03E0
F807E0
F807E0
F807C0
F80FC0
780F80
7C1F00
3E3E00
1FFC00
03E000
ENDCHAR

STARTCHAR p
ENCODING 112
SWIDTH 615 0
DWIDTH 23 0
BBX 25 28 -3 -7
BITMAP
00030000
003F0000
003E0000
003E0000
007FFC00
007FFE00
01FC7F00
03FC1F80
077C1F80
0CF80F80
00F80F80
01F80F80
01F80F80
01F01F80
01F01F00
03F01F00
03E03E00
03E07C00
07E0F800
07EFE000
07FF8000
07C00000
0FC00000
0F800000
0F800000
1F800000
FFF00000
FFF00000
ENDCHAR

STARTCHAR q
ENCODING 113
SWIDTH 594 0
DWIDTH 23 0
BBX 22 25 1 -7
BITMAP
003E00
01FFBC
03E3F8
0F81F8
1F01F0
1F01F0
3E01F0
7E03F0
7C03E0
7C03E0
FC07E0
FC07C0
FC0FC0
FC1FC0
7E3F80
7FE780
3FDF80
1F9F00
001F00
003F00
003E00
003E00
007F00
03FFC0
03FFC0
ENDCHAR

STARTCHAR r
ENCODING 114
SWIDTH 479 0
DWIDTH 18 0
BBX 18 17 1 0
BITMAP
0F0780
1F8FC0
3F9FC0
679BC0
C7B3C0
C7B380
0FE000
0FE000
0F4000
0FC000
1F8000
1F8000
1F8000
1F0000
3F0000
3F0000
3E0000
ENDCHAR

STARTCHAR s
ENCODING 115
SWIDTH 490 0
DWIDTH 19 0
BBX 17 18 1 0
BITMAP
01FC00
07FF00
0F0F80
0F0F80
1F0780
1F8780
1FC000
0FF000
07F800
03FC00
01FE00
607E00
F03E00
F83E00
F83E00
7C7C00
3FF800
0FE000
ENDCHAR

STARTCHAR t
ENCODING 116
SWIDTH 365 0
DWIDTH 14 0
BBX 12 23 2 0
BITMAP
00C0
00C0
01C0
0380
0780
1F80
7FF0
FFF0
1F00
3F00
3E00
3E00
3E00
7E00
7C00
7C00
FC00
F800
F8E0
F9C0
FF80
FF00
3C00
ENDCHAR

STARTCHAR u
ENCODING 117
SWIDTH 635 0
DWIDTH 24 0
BBX 23 18 0 0
BITMAP
038000
0FC07C
3FC0FC
37C0F8
67C0F8
C7C1F8
0F81F0
0F83F0
0F83F0
1F07E0
1F05E0
1F0DE0
3E1BE6
3E37CC
3E67D8
3FE7F8
1F87E0
0E03C0
ENDCHAR

STARTCHAR v
ENCODING 118
SWIDTH 573 0
DWIDTH 22 0
BBX 19 18 1 0
BITMAP
000180
1FE3C0
3FC3E0
7FC3E0
FF83E0
C181E0
C381E0
4700E0
0F00E0
1E00C0
1E01C0
3E0180
3E0380
3F0700
3F8E00
1FFC00
0FF800
07E000
ENDCHAR

STARTCHAR w
ENCODING 119
SWIDTH 854 0
DWIDTH 32 0
BBX 30 18 1 0
BITMAP
00006030
1FE0F878
3FE0F8FC
7FC1F87C
FFC1F87C
C181F03C
C381F03C
4701E01C
0F01E01C
1F01E018
1E01E018
3E03F038
3E07F030
3F0EF8F0
3FFEFFE0
1FF8FFC0
0FF07F80
03C03F00
ENDCHAR

STARTCHAR x
ENCODING 120
SWIDTH 615 0
DWIDTH 23 0
BBX 23 17 0 0
BITMAP
07C03C
0FE07E
1FF0FE
1BF1DE
31FB0C
01FB00
00FE00
00FC00
007E00
003E00
007F00
00FF00
71DF8C
F38FD8
FF0FF8
FE07F0
7C03C0
ENDCHAR

STARTCHAR y
ENCODING 121
SWIDTH 552 0
DWIDTH 21 0
BBX 24 24 -3 -7
BITMAP
01F01E
03F83E
07F83F
06F83F
0CF81F
0CFC1E
007C1E
007C1C
007C1C
007E38
003E30
003E70
003E60
003FC0
001F80
001F00
001E00
001C00
001800
707000
FDE000
FFC000
FF0000
7C0000
ENDCHAR

STARTCHAR z
ENCODING 122
SWIDTH 500 0
DWIDTH 19 0
BBX 18 17 0 0
BITMAP
07E0C0
0FFFC0
1FFF80
1FFF80
307700
380E00
383800
007000
01C000
078000
0E0700
180300
3FC300
7FFE00
FFFE00
FFFC00
C1F800
ENDCHAR

STARTCHAR braceleft
ENCODING 123
SWIDTH 396 0
DWIDTH 15 0
BBX 15 34 6 -8
BITMAP
0006
003C
0070
00E0
01E0
03E0
03C0
03C0
03C0
03C0
03C0
03C0
0780
0700
0E00
1C00
7000
7000
1800
1C00
1E00
1E00
1E00
3C00
3C00
7C00
7800
F800
F000
F000
F000
7000
3E00
0400
ENDCHAR

STARTCHAR bar
ENCODING 124
SWIDTH 219 0
DWIDTH 8 0
BBX 2 34 3 -8
BITMAP
C0
C0
C0
C0
C0
C0
C0
C0
C0
C0
C0
C0
C0
C0
C0
C0
C0
C0
C0
C0
C0
C0
C0
C0
C0
C0
C0
C0
C0
C0
C0
C0
C0
C0
ENDCHAR

STARTCHAR braceright
ENCODING 125
SWIDTH 396 0
DWIDTH 15 0
BBX 15 34 2 -8
BITMAP
00E0
0038
001C
001E
001E
001E
003E
003C
007C
0078
00F8
00F0
00F0
00F0
0070
0038
0006
001C
0070
01E0
01C0
0380
0780
0780
0780
0780
0780
0780
0F80
0F00
0E00
1C00
7800
C000
ENDCHAR

STARTCHAR asciitilde
ENCODING 126
SWIDTH 573 0
DWIDTH 22 0
BBX 18 7 2 9
BITMAP
1F0040
3FC0C0
7FF0C0
FFFF80
C3FF80
80FF00
803E00
ENDCHAR

STARTCHAR space
ENCODING 160
SWIDTH 250 0
DWIDTH 11 0
BBX 0 0 0 0
BITMAP
ENDCHAR

STARTCHAR afii10023
ENCODING 161
SWIDTH 740 0
DWIDTH 28 0
BBX 29 34 0 0
BITMAP
000600C0
000F01E0
001F83F0
001F83F0
000F01E0
000600E0
00000000
00000000
03FFFFF8
03FFFFF8
01FE00F8
00FE0070
00FE0070
00FE0030
00FC0000
00FC0000
01FC0300
01F80700
01F80F00
03FFFF00
03FFFE00
03F01E00
03F00E00
07F00C00
07E00C00
07E00000
0FE00000
0FE000C0
0FC001C0
1FC00380
1FE00F80
7FE03F80
FFFFFF00
FFFFFF00
ENDCHAR

STARTCHAR afii10051
ENCODING 162
SWIDTH 865 0
DWIDTH 33 0
BBX 29 26 3 0
BITMAP
3FFFFFF0
3FFFFFE0
7E1F83E0
781F81E0
701F81E0
E03F80C0
C03F00C0
003F0000
007F0000
007E7F00
007FFFC0
007F87E0
00FE03F0
00FC01F8
00FC01F8
00FC01F8
01FC01F8
01F801F8
01F801F8
03F803F8
03F9E3F0
03F1E3F0
07F1E7E0
0FF1CFC0
1FFDFF80
3FF87E00
ENDCHAR

STARTCHAR afii10052
ENCODING 163
SWIDTH 656 0
DWIDTH 25 0
BBX 28 34 0 0
BITMAP
0000FFC0
0000FF00
0001FE00
0001F800
0003E000
00038000
00000000
00000000
03FFFFF0
03FFFFF0
01FF03E0
00FE01E0
00FE00E0
00FC00C0
00FC00C0
01FC00C0
01FC0000
01F80000
03F80000
03F80000
03F00000
03F00000
07F00000
07F00000
07E00000
0FE00000
0FE00000
0FC00000
1FC00000
1FC00000
1FC00000
3FF00000
7FE00000
FFE00000
ENDCHAR

STARTCHAR afii10053
ENCODING 164
SWIDTH 771 0
DWIDTH 29 0
BBX 29 27 3 -1
BITMAP
0001FF00
001FFFE0
007E07F8
01F801F8
03F000F8
07E00070
0FC00070
1FC00030
3F800000
3F800000
7F000000
7F000000
7FFFF000
FFFFF000
FE000000
FE000000
FE000000
FE000000
FE000000
FE000780
7E000F80
7F001F80
3F001F80
3F803F80
0FE0FF00
07FFFC00
007FE000
ENDCHAR

STARTCHAR afii10054
ENCODING 165
SWIDTH 625 0
DWIDTH 24 0
BBX 25 26 0 0
BITMAP
001FF000
007FFE00
00FC1F80
01F80F80
01F00780
03F00700
03F80300
03F80000
03FC0000
01FF0000
01FF8000
00FFC000
007FE000
003FF000
001FF800
0007F800
0003FC00
0001FC00
7001FC00
F000FC00
F000FC00
F800F800
FC01F800
7E07F000
1FFFC000
03FE0000
ENDCHAR

STARTCHAR afii10055
ENCODING 166
SWIDTH 417 0
DWIDTH 16 0
BBX 19 26 0 0
BITMAP
01FFE0
03FFC0
00FF80
00FF00
00FE00
00FE00
00FC00
00FC00
01FC00
01FC00
01F800
01F800
03F800
03F000
03F000
03F000
07F000
07E000
07E000
0FE000
0FE000
0FC000
1FE000
3FE000
FFF800
FFF800
ENDCHAR

STARTCHAR afii10056
ENCODING 167
SWIDTH 417 0
DWIDTH 16 0
BBX 22 34 0 0
BITMAP
018030
03C078
07E0FC
07E0FC
03C078
018070
000000
000000
01FFC0
03FFC0
00FF00
00FE00
00FE00
00FC00
00FC00
00FC00
01FC00
01F800
01F800
01F800
03F000
03F000
03F000
07F000
07E000
07E000
07E000
0FE000
0FC000
0FC000
1FC000
3FE000
FFF800
FFF000
ENDCHAR

STARTCHAR afii10057
ENCODING 168
SWIDTH 396 0
DWIDTH 15 0
BBX 27 33 -8 -7
BITMAP
0003FFE0
0007FFE0
0001FF80
0000FF00
0000FE00
0000FE00
0000FE00
0000FC00
0001FC00
0001FC00
0001F800
0001F800
0003F800
0003F000
0003F000
0007F000
0007F000
0007E000
0007E000
000FE000
000FC000
000FC000
000FC000
001FC000
001F8000
001F8000
203F8000
783F0000
F83E0000
FC7E0000
FCFC0000
7FF00000
1FC00000
ENDCHAR

STARTCHAR afii10058
ENCODING 169
SWIDTH 1099 0
DWIDTH 42 0
BBX 41 26 0 0
BITMAP
001FFFFF8000
001FFFFF8000
000F81FE0000
000701FC0000
000601FC0000
000601F80000
000601F80000
000C01F80000
000C03F80000
000C03F00000
000803F00000
001807FFC000
001807FFF800
001807E0FE00
001007E07F00
00300FE03F00
00300FC03F80
00200FC03F80
00601FC03F80
00601FC03F80
78601F803F00
F8C03F807F00
F8C03F80FE00
FF807FC1FC00
7F00FFFFF800
3E01FFFF8000
ENDCHAR

STARTCHAR afii10059
ENCODING 170
SWIDTH 1125 0
DWIDTH 43 0
BBX 42 26 0 0
BITMAP
03FFC1FFC000
03FFC3FFC000
01FF00FF0000
00FE00FE0000
00FE00FE0000
00FC00FE0000
01FC00FC0000
01FC00FC0000
01F801FC0000
01F801FC0000
03F801F80000
03F801F80000
03FFFFFFF000
07FFFFFFFE00
07F003F07F00
07F003F01F80
07E007F01F80
0FE007E01FC0
0FE007E01FC0
0FC00FE01FC0
1FC00FC01F80
1FC00FC03F80
3FC01FC07F00
7FC03FE0FE00
FFF0FFFFFC00
FFE0FFFFC000
ENDCHAR

STARTCHAR afii10060
ENCODING 171
SWIDTH 906 0
DWIDTH 34 0
BBX 30 26 3 0
BITMAP
3FFFFFF0
7FFFFFE0
7C1F83E0
703F81E0
E03F81C0
E03F00C0
003F0000
007F0000
007E0F80
007E7FF0
00FEE1F8
00FF80F8
00FF00FC
00FE00FC
01FC00FC
01F800FC
01F801FC
01F801F8
03F801F8
03F003F8
03F003F8
07F003F8
07F007F8
0FF80FF8
3FFC1FFC
3FF81FFC
ENDCHAR

STARTCHAR afii10061
ENCODING 172
SWIDTH 723 0
DWIDTH 27 0
BBX 32 33 0 0
BITMAP
00003FF8
00003F80
00007E00
00007C00
0000F000
00000000
00000000
01FFC03C
03FFC07E
00FF00FF
00FE01FF
00FE03FE
00FE0300
00FC0600
01FC0600
01FC0C00
01F81C00
01F83800
03F87000
03FFF800
03FFF800
07F1FC00
07F1FC00
07E0FE00
07E0FE00
0FE07F00
0FE07F00
0FC07F00
1FC03F80
1FC03F80
3FE01FC0
7FF01FE0
FFE00FE0
ENDCHAR

STARTCHAR hyphen
ENCODING 173
SWIDTH 458 0
DWIDTH 17 0
BBX 14 5 2 6
BITMAP
7FFC
FFF8
FFF8
FFF8
FFF0
ENDCHAR

STARTCHAR afii10062
ENCODING 174
SWIDTH 719 0
DWIDTH 27 0
BBX 27 35 4 -1
BITMAP
01C00E00
03E01F00
03F03F00
03F03F00
01FC7E00
007FF800
00000000
00000000
7FF01FE0
7FF01FC0
3FC00F80
1FC00F00
0FC00E00
0FC00E00
0FC00C00
07C01C00
07E01800
07E03000
07E03000
03F06000
03F0E000
03F0C000
01F1C000
01F98000
01FB0000
01FB0000
00FE0000
00FE0000
70FC0000
F87C0000
F8780000
FC700000
FEE00000
7FC00000
1F000000
ENDCHAR

STARTCHAR afii10145
ENCODING 175
SWIDTH 844 0
DWIDTH 32 0
BBX 34 33 0 -7
BITMAP
01FFC1FFC0
03FFC1FFC0
00FF00FF80
00FE00FF00
00FE00FE00
00FE00FE00
00FC00FE00
00FC00FC00
01FC00FC00
01F801FC00
01F801F800
01F801F800
03F803F800
03F003F800
03F003F000
07F003F000
07F007F000
07E007E000
07E007E000
0FE00FE000
0FC00FE000
0FC00FE000
1FC01FE000
3FE03FE000
7FFFFFF000
FFFFFFF000
001F000000
001F000000
001F000000
003E000000
003E000000
003E000000
007E000000
ENDCHAR

STARTCHAR afii10017
ENCODING 176
SWIDTH 708 0
DWIDTH 27 0
BBX 27 26 -2 0
BITMAP
000007E0
00000FE0
00001FE0
00001FE0
00003FE0
00006FC0
0000CFC0
00018FC0
00038FC0
00070FC0
000E0FC0
000C1FC0
00181FC0
00301FC0
00601F80
00FFFF80
00FFFF80
01801F80
03801F80
07001F80
0E001F80
0E003F80
1E003F80
3F007FC0
FF81FFE0
FF81FFE0
ENDCHAR

STARTCHAR afii10018
ENCODING 177
SWIDTH 729 0
DWIDTH 28 0
BBX 28 26 0 0
BITMAP
01FFFFF0
03FFFFF0
00FF03F0
00FF01E0
00FE00E0
00FE00E0
00FC00E0
00FC0000
01FC0000
01FC0000
01F80000
03FFE000
03FFFC00
03F07F00
03F03F80
07F01F80
07F01FC0
07E01FC0
0FE01FC0
0FE01FC0
0FC01F80
0FC03F80
1FE07F00
3FE0FE00
7FFFFC00
FFFFE000
ENDCHAR

STARTCHAR afii10019
ENCODING 178
SWIDTH 750 0
DWIDTH 29 0
BBX 29 26 -1 0
BITMAP
01FFFF00
01FFFFE0
00FF07F0
007F03F8
007E01F8
007E01F8
00FE01F8
00FC01F8
00FC03F8
01FC07F0
01F80FE0
01FFFD80
01FFFE00
03F81F80
03F80FC0
03F007E0
03F007E0
07F007F0
07F007F0
07E007F0
0FE007E0
0FE00FE0
1FE01FC0
3FF03F80
7FFFFF00
FFFFF800
ENDCHAR

STARTCHAR afii10020
ENCODING 179
SWIDTH 633 0
DWIDTH 24 0
BBX 28 26 0 0
BITMAP
03FFFFF0
03FFFFF0
01FF03E0
00FE01E0
00FE00E0
00FC00C0
00FC00C0
01FC00C0
01FC0000
01F80000
03F80000
03F80000
03F00000
03F00000
07F00000
07F00000
07E00000
0FE00000
0FE00000
0FC00000
1FC00000
1FC00000
1FC00000
3FF00000
7FE00000
FFE00000
ENDCHAR

STARTCHAR afii10021
ENCODING 180
SWIDTH 719 0
DWIDTH 27 0
BBX 34 33 -4 -7
BITMAP
003FFFFFC0
003FFFFFC0
000F00FF00
000E00FE00
000600FE00
000400FC00
000C00FC00
000C01FC00
000C01FC00
000801F800
001803F800
001803F800
001003F000
003003F000
003007F000
002007F000
006007E000
00600FE000
00C00FE000
00C00FC000
01C00FC000
01801FC000
03801FC000
07803FE000
3FFFFFF000
3FFFFFF000
3F0003F000
3C0001E000
780000E000
700000E000
600000E000
600000C000
C00000C000
ENDCHAR

STARTCHAR afii10022
ENCODING 181
SWIDTH 740 0
DWIDTH 28 0
BBX 30 26 0 0
BITMAP
03FFFFFC
03FFFFF8
01FE0078
00FE0078
00FE0038
00FE0038
00FC0000
00FC0000
01FC0180
01F80380
01F80F00
01FFFF00
03FFFF00
03F01E00
03F00E00
07F00E00
07F00600
07E00000
07E00000
0FE000E0
0FC001C0
0FC003C0
1FE00FC0
3FE03F80
FFFFFF80
FFFFFF00
ENDCHAR

STARTCHAR afii10024
ENCODING 182
SWIDTH 915 0
DWIDTH 35 0
BBX 42 26 -3 0
BITMAP
01F03FFE0F00
01FC3FFE1F80
03FC0FF83FC0
01FE0FF07F80
01FE07E06780
00060FE0C000
00060FE0C000
00060FC18000
00060FC18000
00061FC30000
00021F830000
00031F8C0000
003FFFFE0000
007FBFBF0000
00FE3F1F8000
01FC3F1F8000
01FC7F1FC000
03F87F0FC000
07F87E0FC000
07F07E0FC000
0FE0FE0FE000
0FE0FC07E000
1FC1FE07E000
3FC1FE07F000
FF87FF83F800
FF07FF83F800
ENDCHAR

STARTCHAR afii10025
ENCODING 183
SWIDTH 656 0
DWIDTH 25 0
BBX 24 26 0 0
BITMAP
001FE0
00FFF8
01E0FC
03C07E
03803F
03003F
07003F
00003F
00007F
00007E
0001FC
007F70
00FF80
0003E0
0000F8
0000FC
0000FC
0000FE
7000FE
F800FE
FC00FC
FC01FC
7C03F8
3F07F0
1FFFC0
03FF00
ENDCHAR

STARTCHAR afii10026
ENCODING 184
SWIDTH 844 0
DWIDTH 32 0
BBX 34 26 1 0
BITMAP
03FF83FFC0
03FF83FF80
01FE01FF00
01FC00FE00
01FC00FC00
01FC01FC00
01F803FC00
01F807F800
03F80DF800
03F81BF800
03F033F800
03F063F000
07F0C7F000
07E187F000
07E307E000
0FE607E000
0FEC0FE000
0FD80FE000
0FF00FC000
1FE01FC000
1FC01FC000
1F801FC000
3F803FC000
7FC07FC000
FFE0FFF000
FFE0FFE000
ENDCHAR

STARTCHAR afii10027
ENCODING 185
SWIDTH 844 0
DWIDTH 32 0
BBX 34 34 1 0
BITMAP
0007003800
000F807C00
000FC0FC00
000FC0FC00
0007E3F800
0001FFE000
0000000000
0000000000
03FF83FFC0
03FF83FF80
01FE01FF00
01FC00FE00
01FC00FC00
01FC01FC00
01F803FC00
01F807F800
03F80DF800
03F81BF800
03F033F800
03F063F000
07F0C7F000
07E187F000
07E307E000
0FE607E000
0FEC0FE000
0FD80FE000
0FF00FC000
1FE01FC000
1FC01FC000
1F801FC000
3F803FC000
7FC07FC000
FFE0FFF000
FFE0FFE000
ENDCHAR

STARTCHAR afii10028
ENCODING 186
SWIDTH 723 0
DWIDTH 27 0
BBX 32 26 0 0
BITMAP
01FFC03C
03FFC07E
00FF00FF
00FE01FF
00FE03FE
00FE0300
00FC0600
01FC0600
01FC0C00
01F81C00
01F83800
03F87000
03FFF800
03FFF800
07F1FC00
07F1FC00
07E0FE00
07E0FE00
0FE07F00
0FE07F00
0FC07F00
1FC03F80
1FC03F80
3FE01FC0
7FF01FE0
FFE00FE0
ENDCHAR

STARTCHAR afii10029
ENCODING 187
SWIDTH 835 0
DWIDTH 32 0
BBX 34 26 0 0
BITMAP
000FFFFFC0
001FFFFF80
000781FF00
000700FE00
000300FC00
000200FC00
000601FC00
000601F800
000601F800
000C03F800
000C03F800
000C03F000
000803F000
001807F000
001807E000
001807E000
001007E000
00300FE000
00300FC000
00200FC000
78601FC000
7C601FC000
FCC01FC000
7EC03FC000
7F80FFF000
3F00FFE000
ENDCHAR

STARTCHAR afii10030
ENCODING 188
SWIDTH 979 0
DWIDTH 37 0
BBX 39 26 -1 0
BITMAP
00FFC003FE
00FFC003FE
003FC007FC
003FC007F8
003FC00FF0
003FC01FF0
002FC01BE0
006FC037E0
004FC077E0
00CFE067E0
00CFE0C7E0
018FE1C7E0
0187E18FE0
0107E30FE0
0307E60FC0
0307F60FC0
0607F40FC0
0607F80FC0
0E03F80FC0
0C03F00FC0
0C03F01FC0
1C03E01FC0
3C03C01FC0
7E03C03FE0
FF0380FFF0
FF0380FFE0
ENDCHAR

STARTCHAR afii10031
ENCODING 189
SWIDTH 844 0
DWIDTH 32 0
BBX 34 26 1 0
BITMAP
03FF83FFC0
07FF83FF80
01FE01FF00
01FC00FE00
01FC00FC00
01FC00FC00
01F801FC00
01F801F800
03F801F800
03F803F800
03F003F800
03F003F000
07FFFFF000
07FFFFF000
07E007E000
0FE007E000
0FE007E000
0FC00FE000
0FC00FC000
1FC00FC000
1FC01FC000
1F801F8000
3F801FC000
7FC03FC000
FFE0FFF000
FFE0FFE000
ENDCHAR

STARTCHAR afii10032
ENCODING 190
SWIDTH 854 0
DWIDTH 32 0
BBX 29 26 3 0
BITMAP
0007F800
003FFF00
00FC1F80
03F807C0
07F003E0
0FE003F0
1FC003F0
1FC003F0
3F8003F8
3F8003F8
7F0003F8
7F0003F8
7F0003F8
FE0007F0
FE0007F0
FE0007F0
FE000FE0
FE000FE0
7E000FC0
7E001FC0
7E001F80
3F003F00
1F807C00
0FC1F800
03FFE000
00FF0000
ENDCHAR

STARTCHAR afii10033
ENCODING 191
SWIDTH 854 0
DWIDTH 32 0
BBX 34 26 1 0
BITMAP
03FFFFFFC0
03FFFFFFC0
01FF00FF00
00FE00FE00
00FC00FE00
00FC00FC00
01FC01FC00
01F801FC00
01F801F800
03F801F800
03F803F800
03F003F800
03F003F000
07F003F000
07E007F000
07E007E000
0FE007E000
0FE00FE000
0FC00FE000
0FC00FC000
1FC00FC000
1FC01FC000
3FC01FC000
7FC03FC000
FFE0FFF000
FFE0FFE000
ENDCHAR

STARTCHAR afii10034
ENCODING 192
SWIDTH 677 0
DWIDTH 26 0
BBX 29 26 -1 0
BITMAP
01FFFF00
03FFFFC0
00FF0FF0
007F03F0
007E03F8
007E03F8
00FE03F8
00FE03F8
00FC03F0
00FC07F0
01FC07E0
01F80FE0
01F9FF80
01FBFF00
03F8F000
03F00000
03F00000
07F00000
07F00000
07E00000
0FE00000
0FE00000
1FE00000
3FF00000
7FFC0000
FFFC0000
ENDCHAR

STARTCHAR afii10035
ENCODING 193
SWIDTH 750 0
DWIDTH 29 0
BBX 28 27 3 -1
BITMAP
0003FC00
001FFF80
007E07E0
01F803F0
03F001F0
07E000E0
0FC000E0
1F8000E0
3F800060
3F800000
7F000000
7F000000
7E000000
FE000000
FE000000
FE000000
FE000000
FE000000
FE000780
7E000700
7E000F00
7F000F00
3F001E00
1F807E00
0FE0FC00
03FFF000
00FF8000
ENDCHAR

STARTCHAR afii10036
ENCODING 194
SWIDTH 729 0
DWIDTH 28 0
BBX 28 26 4 0
BITMAP
3FFFFFF0
7FFFFFE0
7C1F83E0
781F81E0
E03F80E0
E03F80E0
003F0000
003F0000
007F0000
007E0000
007E0000
00FE0000
00FE0000
00FC0000
00FC0000
01FC0000
01F80000
01F80000
01F80000
03F80000
03F00000
07F00000
07F00000
0FF80000
3FFE0000
7FFE0000
ENDCHAR

STARTCHAR afii10037
ENCODING 195
SWIDTH 719 0
DWIDTH 27 0
BBX 27 27 4 -1
BITMAP
7FF01FE0
7FF01FC0
3FC00F80
1FC00F00
0FC00E00
0FC00E00
0FC00C00
07C01C00
07E01800
07E03000
07E03000
03F06000
03F0E000
03F0C000
01F1C000
01F98000
01FB0000
01FB0000
00FE0000
00FE0000
70FC0000
F87C0000
F8780000
FC700000
FEE00000
7FC00000
1F000000
ENDCHAR

STARTCHAR afii10038
ENCODING 196
SWIDTH 1021 0
DWIDTH 39 0
BBX 35 26 3 0
BITMAP
0001FFE000
0001FFE000
0000FF8000
00007F0000
003FFFF800
01FFFFFE00
0FF0FE3F80
1FC0FC0FC0
3F81FC0FC0
7F01FC07E0
7E01F807E0
FE01F807E0
FC03F807E0
FC03F80FE0
FC03F00FE0
FC03F00FC0
FC07F01FC0
7E07F03F80
7F07E07F00
3FCFE3FC00
0FFFFFF000
01FFFE0000
001FE00000
003FE00000
00FFF80000
00FFF80000
ENDCHAR

STARTCHAR afii10039
ENCODING 197
SWIDTH 771 0
DWIDTH 29 0
BBX 32 26 0 0
BITMAP
03FFE1FF
03FFE1FF
00FF80FC
007F0078
007F00F0
003F80C0
003F8180
001FC700
001FCE00
000FEC00
000FF000
0007F000
0007F000
0003F800
0007F800
000EFC00
0019FC00
0030FE00
00E0FE00
01C07F00
03807F00
07003F80
1F003FC0
3F807FE0
FFC0FFF0
FF80FFE0
ENDCHAR

STARTCHAR afii10040
ENCODING 198
SWIDTH 844 0
DWIDTH 32 0
BBX 34 33 0 -7
BITMAP
03FFC1FFC0
03FFC1FFC0
01FF00FF00
00FE00FE00
00FE00FE00
00FC00FE00
01FC00FC00
01FC01FC00
01F801FC00
01F801F800
03F801F800
03F803F800
03F003F000
03F003F000
07F003F000
07E007F000
07E007E000
0FE007E000
0FE00FE000
0FC00FE000
0FC00FC000
1FC01FC000
1FC01FC000
3FC03FE000
FFFFFFF000
FFFFFFF000
000003E000
000001E000
000000E000
000000E000
000000C000
000000C000
000000C000
ENDCHAR

STARTCHAR afii10041
ENCODING 199
SWIDTH 802 0
DWIDTH 30 0
BBX 28 26 4 0
BITMAP
FFF07FF0
FFE0FFF0
7FC03FC0
7F803F80
7F003F80
7F003F00
7F003F00
7E003F00
7E007E00
FE007E00
FE007E00
FC00FE00
FC01FC00
FC03FC00
7E07FC00
7E1EFC00
1FF9F800
07E1F800
0003F800
0003F000
0003F000
0007F000
0007F000
000FF000
003FFC00
003FFC00
ENDCHAR

STARTCHAR afii10042
ENCODING 200
SWIDTH 1083 0
DWIDTH 41 0
BBX 43 26 0 0
BITMAP
03FF8FFCFFE0
03FF9FFCFFE0
01FF0FF07F80
00FE0FF07F00
00FE07E07F00
00FC0FE07E00
00FC0FE07E00
01FC0FC0FE00
01F80FC0FE00
01F81FC0FC00
03F81FC0FC00
03F81F81FC00
03F03F81F800
03F03F81F800
07F03F01F800
07E03F03F800
07E07F03F000
0FE07F03F000
0FE07E07F000
0FC07E07F000
0FC0FE07E000
1FC0FE07E000
1FC1FE0FE000
3FE3FE1FF000
FFFFFFFFF800
FFFFFFFFF800
ENDCHAR

STARTCHAR afii10043
ENCODING 201
SWIDTH 1083 0
DWIDTH 41 0
BBX 43 33 0 -7
BITMAP
03FF8FFCFFE0
03FF9FFCFFE0
01FF0FF07F80
00FE0FF07F00
00FE07E07F00
00FC0FE07E00
01FC0FE07E00
01FC0FC0FE00
01F80FC0FE00
01F81FC0FC00
03F81F80FC00
03F01F81FC00
03F03F81F800
03F03F81F800
07F03F01F800
07E03F03F800
07E07F03F000
0FE07E03F000
0FE07E03F000
0FC0FE07F000
0FC0FE07E000
1FC0FE07E000
1FC1FE0FE000
3FE3FE1FF000
7FFFFFFFF800
FFFFFFFFF800
00000001F800
00000000F000
000000007000
000000007000
000000007000
000000006000
000000006000
ENDCHAR

STARTCHAR afii10044
ENCODING 202
SWIDTH 823 0
DWIDTH 31 0
BBX 28 26 2 0
BITMAP
3FFFF800
3FFFF000
3E1FE000
781FC000
701F8000
E01F8000
003F8000
003F0000
003F0000
007F0000
007E0000
007FF800
007FFF00
00FE1FC0
00FC0FE0
00FC07E0
01FC07F0
01FC07F0
01F807F0
01F807F0
03F807E0
03F80FE0
07F81FC0
0FFC3F80
1FFFFF00
1FFFF800
ENDCHAR

STARTCHAR afii10045
ENCODING 203
SWIDTH 1050 0
DWIDTH 40 0
BBX 43 26 0 0
BITMAP
03FFC001FFE0
03FF8001FFC0
01FF0000FF80
00FE00007F00
00FC00007E00
01FC00007E00
01FC0000FE00
01F80000FC00
01F80000FC00
03F80001FC00
03F80001F800
03FFE001F800
03FFF801F800
07F0FE03F800
07E07F03F000
07E03F03F000
0FE03F87F000
0FE03F87F000
0FC03F87E000
0FC03F87E000
1FC03F0FE000
1FC07F0FE000
3FC0FE1FE000
3FE1FC3FE000
FFFFF87FF800
FFFFC07FF000
ENDCHAR

STARTCHAR afii10046
ENCODING 204
SWIDTH 719 0
DWIDTH 27 0
BBX 26 26 0 0
BITMAP
01FFC000
03FFC000
00FF0000
00FE0000
00FE0000
00FC0000
00FC0000
01FC0000
01FC0000
01F80000
01F80000
03FFE000
03FFFC00
03F07F00
03F03F80
07F01F80
07E01FC0
07E01FC0
0FE01FC0
0FE01FC0
0FC01F80
1FC03F80
1FC07F00
3FE0FE00
FFFFFC00
FFFFC000
ENDCHAR

STARTCHAR afii10047
ENCODING 205
SWIDTH 777 0
DWIDTH 30 0
BBX 28 27 1 -1
BITMAP
003FE000
01FFFC00
07E03F00
07C00F80
07000FC0
070007C0
0E0007E0
0E0007E0
000007E0
000007F0
000007F0
000007F0
007FFFF0
00FFFFF0
00000FE0
00000FE0
00000FE0
00001FC0
30001FC0
78003F80
FC003F80
FC007F00
FC00FE00
7E01FC00
3F07F000
1FFFE000
03FE0000
ENDCHAR

STARTCHAR afii10048
ENCODING 206
SWIDTH 1250 0
DWIDTH 48 0
BBX 47 26 0 0
BITMAP
01FFC001FE00
03FFC00FFFC0
01FF003F07E0
00FE007E01F0
00FE01FC00F8
00FC03F800FC
00FC03F000FC
01FC07F000FC
01FC0FE000FE
01F80FE000FE
03F81FC000FE
03F81FC000FE
03FFFFC000FE
03FFFF8001FC
07F03F8001FC
07F03F8001FC
07E03F8001F8
07E03F8003F8
0FE03F8003F0
0FC01F8007F0
0FC01F8007E0
1FC00FC00FC0
1FC007E01F80
3FE003F07E00
FFF000FFF800
FFE0003FC000
ENDCHAR

STARTCHAR afii10049
ENCODING 207
SWIDTH 792 0
DWIDTH 30 0
BBX 33 26 -1 0
BITMAP
0003FFFF80
001FFFFF80
003F81FE00
007F01FC00
00FE01FC00
00FC01F800
01FC01F800
01FC03F800
01FC03F800
00FC03F000
007E03F000
003F07F000
000FFFE000
001FFFE000
003FCFE000
007F8FE000
00FF0FC000
00FF0FC000
01FE1FC000
03FC1FC000
07F81F8000
0FF83F8000
1FF03F8000
3FE07FC000
FFC1FFE000
FF81FFE000
ENDCHAR

STARTCHAR afii10065
ENCODING 208
SWIDTH 585 0
DWIDTH 22 0
BBX 20 17 1 0
BITMAP
00F870
03FEE0
0787E0
1F07E0
1E07C0
3E07C0
7C07C0
7C0F80
FC0F80
F80F80
F81F00
F83F00
FC7F30
FFEF60
FFDFE0
7F9FC0
3E0F00
ENDCHAR

STARTCHAR afii10066
ENCODING 209
SWIDTH 573 0
DWIDTH 22 0
BBX 21 26 2 0
BITMAP
000008
001FF8
00FFF8
03FFF0
07FFE0
0FFF00
0F0000
1C0000
380000
307C00
63FF00
678780
6F03C0
DE03E0
FE03E0
FC03E0
FC03E0
FC07E0
F807E0
F807C0
F80FC0
780F80
7C1F00
3C3E00
1FFC00
07E000
ENDCHAR

STARTCHAR afii10067
ENCODING 210
SWIDTH 514 0
DWIDTH 20 0
BBX 17 18 1 0
BITMAP
01FE00
07FF00
0F8F80
1F0780
3E0780
7E0700
7C1E00
FCF400
FFF800
FFFE00
FC3F00
F81F00
F81F00
781F00
783E00
3C7E00
1FFC00
03F000
ENDCHAR

STARTCHAR afii10068
ENCODING 211
SWIDTH 378 0
DWIDTH 14 0
BBX 13 17 1 0
BITMAP
07E0
0FF8
1CF8
08F8
00F8
00F0
01E0
03C0
0F00
3E00
7C00
F800
F800
F860
FCC0
7F80
3F00
ENDCHAR

STARTCHAR afii10069
ENCODING 212
SWIDTH 568 0
DWIDTH 22 0
BBX 20 26 2 0
BITMAP
003800
001C00
000E00
000700
000780
0003C0
0003C0
0001E0
0001E0
01F1F0
07FDF0
1F87F0
3F03F0
3E03F0
7C03F0
7C03F0
FC03E0
F803E0
F803E0
F807C0
F807C0
780F80
781F00
3C3E00
1FFC00
03F000
ENDCHAR

STARTCHAR afii10070
ENCODING 213
SWIDTH 517 0
DWIDTH 20 0
BBX 18 18 1 0
BITMAP
003F00
01FF80
03C7C0
0783C0
0F03C0
1E03C0
3E0780
7E0F80
7C3E00
7FFC00
FFE000
FC0000
FC0000
7E0380
7F0F00
7FFE00
3FF800
0FC000
ENDCHAR

STARTCHAR afii10072
ENCODING 214
SWIDTH 1083 0
DWIDTH 41 0
BBX 41 18 0 0
BITMAP
03F000003E00
0FFC07C1FF00
1FFC0F83C780
387E0F878780
703E0F0F8780
003E1F0F0300
003E1F1F0000
003E1E1F0000
003FFFFE0000
003FFFFE0000
007C3C3E0000
007C7C3E0000
60787C3E0000
F0F87C3F0700
F0F0F83F0E00
F9E0F81FFC00
7FC0F81FF800
3F01F007E000
ENDCHAR

STARTCHAR afii10073
ENCODING 215
SWIDTH 407 0
DWIDTH 15 0
BBX 15 18 0 0
BITMAP
03F8
0FFC
1C7E
103E
003E
007C
00FC
07B0
0FC0
01F0
00F8
00F8
00F8
E0F8
E1F8
F3F0
FFE0
3F80
ENDCHAR

STARTCHAR afii10074
ENCODING 216
SWIDTH 635 0
DWIDTH 24 0
BBX 23 17 0 0
BITMAP
0F807C
1FC07C
3FC0F8
67C0F8
C7C1F8
0F81F8
0F83F0
0F83F0
1F07F0
1F07E0
1F0DE0
1E0BE0
3E1BC6
3E37CC
3E67F8
3FC7F0
1F83E0
ENDCHAR

STARTCHAR afii10075
ENCODING 217
SWIDTH 635 0
DWIDTH 24 0
BBX 23 26 0 -1
BITMAP
003818
003C10
003E70
003FE0
001F80
000000
000000
000000
07807C
1FC07C
3FC0FC
67C0F8
E7C1F8
0F81F8
0F81F0
0F83F0
1F83F0
1F07E0
1F0DE0
1F0BE0
3E1BC6
3E37CC
3E67D8
3FC7F0
1F87E0
0C0180
ENDCHAR

STARTCHAR afii10076
ENCODING 218
SWIDTH 563 0
DWIDTH 21 0
BBX 20 17 1 0
BITMAP
03C0E0
3FC1F0
7FC3F0
0F83E0
0F8600
0F8E00
1F3C00
1FF800
1FFC00
3E7C00
3E3E00
3E3E00
7E3E00
7C1F00
7C1F00
7C1FC0
F80F80
ENDCHAR

STARTCHAR afii10077
ENCODING 219
SWIDTH 594 0
DWIDTH 23 0
BBX 21 17 0 0
BITMAP
0003F0
001FF0
003BE0
0063E0
00C3E0
00C7E0
0187C0
0187C0
010FC0
030F80
030F80
060F98
061F30
FE1F20
FC1FE0
F81FC0
F00F00
ENDCHAR

STARTCHAR afii10078
ENCODING 220
SWIDTH 729 0
DWIDTH 28 0
BBX 27 17 -1 0
BITMAP
007C0FC0
007C0FC0
00FC1F80
00FC3F80
00BC3780
01BC6F00
01BCDF00
013CDF00
013D9E00
033F3E00
033F3E00
023E7E60
063C7CC0
FE3C7C80
FC387F80
FC387E00
70303C00
ENDCHAR

STARTCHAR afii10079
ENCODING 221
SWIDTH 635 0
DWIDTH 24 0
BBX 22 17 2 0
BITMAP
00C000
7FC0F8
7F81F8
1F81F0
0F81F0
1F01F0
1F03E0
1F03E0
3FFFE0
3FFFC0
3E07C0
7E07C0
7C0F8C
7C0F98
FC0FB0
F80FE0
F807C0
ENDCHAR

STARTCHAR afii10080
ENCODING 222
SWIDTH 573 0
DWIDTH 22 0
BBX 19 18 2 0
BITMAP
00FC00
07FF00
0F8780
1F07C0
3E03E0
7E03E0
7C03E0
FC03E0
FC03E0
F807E0
F807E0
F807C0
F80FC0
780F80
7C1F00
3E3E00
1FFC00
07E000
ENDCHAR

STARTCHAR afii10081
ENCODING 223
SWIDTH 635 0
DWIDTH 24 0
BBX 23 17 0 0
BITMAP
0780F0
1FC3F8
3FC7FC
67CC7C
C7D8FC
0FF0FC
0FA0F8
0FE1F8
1FC1F0
1F83F0
1F83E0
3F03E0
3F07C6
3E07CC
3E07F8
7C07F0
7C03E0
ENDCHAR

STARTCHAR afii10082
ENCODING 224
SWIDTH 612 0
DWIDTH 23 0
BBX 25 28 -3 -7
BITMAP
00030000
003F0000
003E0000
003E0000
007FFC00
007FFE00
01FC7F00
03FC1F80
077C1F80
0CF80F80
00F80F80
01F80F80
01F80F80
01F01F80
01F01F00
03F01F00
03E03E00
03E07C00
07E0F800
07EFE000
07FF8000
07C00000
0FC00000
0F800000
0F800000
1FC00000
FFF00000
FFF00000
ENDCHAR

STARTCHAR afii10083
ENCODING 225
SWIDTH 506 0
DWIDTH 19 0
BBX 17 17 2 0
BITMAP
00FE00
07FF80
0F8F80
1F0780
3E0780
7C0300
7C0000
F80000
F80000
F80000
F80000
FC0000
FC0700
FF0E00
7FFC00
3FF000
0FC000
ENDCHAR

STARTCHAR afii10084
ENCODING 226
SWIDTH 1000 0
DWIDTH 38 0
BBX 37 17 0 0
BITMAP
07807803C0
1FC1FE0FE0
3FC7FE1FF0
67CE3E31F0
C7DC3E61F0
0FD83EC3F0
0FB07D83E0
0FE07F03E0
1FC07F07C0
1F80FE07C0
1F80FC0FC0
3F00FC0F80
3F01F81F98
3E01F81F30
7E01F01FE0
7C03F01FC0
7C03E00F80
ENDCHAR

STARTCHAR afii10085
ENCODING 227
SWIDTH 552 0
DWIDTH 21 0
BBX 24 24 -3 -7
BITMAP
01F01E
03F83E
07F83F
06F83F
0CF81F
0CFC1E
007C1E
007C1C
007C1C
007E38
003E38
003E70
003E60
003F40
001F80
001F80
001F00
001E00
001C00
703000
FCE000
FFC000
FF8000
7E0000
ENDCHAR

STARTCHAR afii10086
ENCODING 228
SWIDTH 781 0
DWIDTH 30 0
BBX 27 33 2 -7
BITMAP
00001FC0
00007FC0
0000F3C0
0000F1C0
0001E000
0003E000
0003E000
0003E000
0007C000
03E7DF00
0FFFDF80
1F1FE7C0
3F0FC3C0
3E0F83E0
7E0F83E0
7C0F83E0
7C1F03E0
FC1F07E0
F81F07E0
F83E07C0
F83E0FC0
F83E0F80
787E1F80
7CFF1F00
3FBFFC00
1F7CF000
00780000
00780000
10F00000
3CF00000
7EE00000
3FC00000
1E000000
ENDCHAR

STARTCHAR afii10087
ENCODING 229
SWIDTH 615 0
DWIDTH 23 0
BBX 23 17 0 0
BITMAP
07C03C
0FE07E
1FF0FE
1BF1DE
31FB0C
01FA00
00FE00
00FC00
007E00
003E00
007F00
00EF00
71DF8C
FB8F98
FF0FF8
FE07F0
7C03C0
ENDCHAR

STARTCHAR afii10088
ENCODING 230
SWIDTH 625 0
DWIDTH 24 0
BBX 23 24 0 -7
BITMAP
0F807C
1FC07C
3FC0F8
67C0F8
C7C1F8
0F81F8
0F83F0
0F83F0
1F07F0
1F07E0
1F0DE0
1E0BE0
3E1BC6
3E37CC
3E67F8
3FC7F0
1F83E0
000080
000380
000380
000780
000700
003F00
001C00
ENDCHAR

STARTCHAR afii10089
ENCODING 231
SWIDTH 615 0
DWIDTH 23 0
BBX 22 18 1 0
BITMAP
060000
1F80F8
3F80F8
6F81F8
CF81F0
8F81F0
0F03F0
1F03E0
1F07E0
1F1BE0
0FF7C0
07C7C0
0007CC
000F88
000F98
000FF0
000FE0
000780
ENDCHAR

STARTCHAR afii10090
ENCODING 232
SWIDTH 1000 0
DWIDTH 38 0
BBX 38 17 0 0
BITMAP
07801F00F8
1FC03F00F8
3FC03E01F0
67C07E01F0
C7C07E03F0
0FC0FC03E0
0F80FC07E0
0F81FC07E0
1F83F80FE0
1F02F81BC0
1F06F837C0
3E0DF06FC0
3E19F0EF8C
3E71F1CF98
3FE1FF8FF0
1FC0FE0FE0
0E00780780
ENDCHAR

STARTCHAR afii10091
ENCODING 233
SWIDTH 1000 0
DWIDTH 38 0
BBX 37 24 1 -7
BITMAP
07803E01F0
1FC07E01F0
3FC07C03E0
67C0FC03E0
C7C0FC07E0
0F81F807C0
0F81F80FC0
1F03F80FC0
1F07F01FC0
3E05F03780
3E0DF06F80
7E1BE0DF80
7C33E1DF18
7CE3E39F30
7FC3FF1FE0
3F81FC1FC0
1C00F00B00
0000000600
0000000E00
0000001E00
0000001E00
0000003C00
000000F800
0000004000
ENDCHAR

STARTCHAR afii10092
ENCODING 234
SWIDTH 521 0
DWIDTH 20 0
BBX 17 18 1 0
BITMAP
3C3000
7FF000
FFB000
FF6000
80C000
01C000
078000
0E7E00
1FFF00
3F9F80
3E0F80
7E0F80
7C0F80
7C0F80
7C1F00
3E3E00
1FFC00
07E000
ENDCHAR

STARTCHAR afii10093
ENCODING 235
SWIDTH 781 0
DWIDTH 30 0
BBX 27 18 2 0
BITMAP
01800040
7F003FC0
FF007FC0
3F000F80
3F000F80
3E000F80
3E001F00
7DFC1F00
7FFE1F00
7E3F1E00
7C1F3E00
F81F3E00
F81F3E60
F83F7C40
F83E7CC0
7C7C7F80
3FF87F00
0FE03C00
ENDCHAR

STARTCHAR afii10094
ENCODING 236
SWIDTH 510 0
DWIDTH 19 0
BBX 16 18 2 0
BITMAP
0180
7F00
FF00
3F00
3F00
3E00
3E00
7DFC
7FFE
7E3F
7C1F
F81F
F81F
F83F
F83E
7C7E
3FF8
0FE0
ENDCHAR

STARTCHAR afii10095
ENCODING 237
SWIDTH 483 0
DWIDTH 18 0
BBX 18 18 0 0
BITMAP
00FC00
07FE00
0FFF00
1C3F80
381F80
700FC0
000FC0
000FC0
03FF80
03FF80
000F80
000F80
701F00
F01E00
F03C00
F8F800
7FF000
1F8000
ENDCHAR

STARTCHAR afii10096
ENCODING 238
SWIDTH 867 0
DWIDTH 33 0
BBX 31 18 1 0
BITMAP
01E01FC0
3FC07FF0
3FC0F878
0FC1F07C
0F83E03C
0F87E03E
0F87C03E
1F8FC03E
1FFFC03E
1FFF807E
1F0F807E
3E0F807C
3E0F80FC
3E0780F8
7E07C1F0
7C03E3E0
7C01FFC0
FC007E00
ENDCHAR

STARTCHAR afii10097
ENCODING 239
SWIDTH 603 0
DWIDTH 23 0
BBX 22 17 -1 0
BITMAP
00FFFC
03FFFC
03E0FC
07C0F8
07C0F8
07C1F8
03E1F0
01FFF0
00FFF0
01C3E0
0303E0
0303E4
0607CC
7E07C8
FC07F8
FC07F0
7803C0
ENDCHAR

STARTCHAR afii61352
ENCODING 240
SWIDTH 1135 0
DWIDTH 43 0
BBX 42 26 -1 0
BITMAP
007F800FC000
007F801FE000
003F801BE000
001FC033E000
000FC033E000
000FE031C000
000FE0600000
001FE0600000
001BF0607F00
001BF040E780
0033F0C3C380
0033F8C383C0
0031F8C783C0
0021FC8783C0
0061FD8F03C0
0060FD8F0380
0060FF0F0780
00C07F0F0700
00C07F070F00
00C07F039C00
70803E01F800
F9803E000000
F9801E000000
FB001C3FFE00
7F001C3FFE00
3E000C7FFC00
ENDCHAR

STARTCHAR afii10071
ENCODING 241
SWIDTH 517 0
DWIDTH 20 0
BBX 20 25 1 0
BITMAP
01C0E0
03E1F0
03E1F0
03E1F0
01C0E0
000000
000000
000000
003F00
01FF80
07C3C0
0F83C0
1F03C0
3E03C0
3E0780
7C1F00
7CFE00
FFF000
FF0000
FC0000
FC0380
7E0F00
7FFE00
3FF800
0FC000
ENDCHAR

STARTCHAR afii10099
ENCODING 242
SWIDTH 631 0
DWIDTH 24 0
BBX 22 33 0 -7
BITMAP
00FC00
07F800
06F800
01F800
01F000
07FFF8
0FFFF8
03E000
03E000
03E7C0
07DFF0
07F0F8
07C078
0FC07C
0F807C
0F807C
1F807C
1F007C
1F00FC
3F00FC
3E00FC
3E00F8
7E01F8
7C01F0
7C03F0
FC03E0
0007C0
000780
000F00
001E00
003C00
01F000
00C000
ENDCHAR

STARTCHAR afii10100
ENCODING 243
SWIDTH 512 0
DWIDTH 19 0
BBX 20 27 0 0
BITMAP
000FE0
000FC0
000F80
001F00
001E00
001C00
003800
000000
000000
000000
07FFF0
0FFFF0
07F0F0
03E060
07E060
07C000
07C000
07C000
0F8000
0F8000
0F8000
1F0000
1F0000
1F0000
3F0000
7F8000
FF8000
ENDCHAR

STARTCHAR afii10101
ENCODING 244
SWIDTH 547 0
DWIDTH 21 0
BBX 19 18 2 0
BITMAP
00FE00
07FF00
0FC780
1F01C0
3E00E0
3E0000
7C0000
7C0000
FFF000
FFF000
F80000
F80000
F80380
F80780
7C0F80
7E1F80
1FFE00
07F000
ENDCHAR

STARTCHAR afii10102
ENCODING 245
SWIDTH 490 0
DWIDTH 19 0
BBX 17 18 1 0
BITMAP
01FC00
07FF00
0F0F80
0F0F80
1F0780
1F8780
1FC000
0FF000
07F800
03FC00
01FE00
607E00
F03E00
F83E00
F83E00
7C7C00
3FF800
0FE000
ENDCHAR

STARTCHAR afii10103
ENCODING 246
SWIDTH 333 0
DWIDTH 13 0
BBX 14 27 0 0
BITMAP
0030
0078
00FC
00FC
0078
0030
0000
0000
0000
0000
0F80
1FC0
3FC0
67C0
C7C0
0F80
0F80
0F80
1F00
1F00
3E00
3E00
3E70
7EE0
7FC0
7F80
3E00
ENDCHAR

STARTCHAR afii10104
ENCODING 247
SWIDTH 333 0
DWIDTH 13 0
BBX 16 25 1 0
BITMAP
1C0E
3E1F
3E1F
3E1F
1C0E
0000
0000
0000
0780
1FC0
3FC0
67C0
C7C0
0FC0
0F80
0F80
1F00
1F00
1F00
3E00
3E30
3E60
7FC0
7F80
3E00
ENDCHAR

STARTCHAR afii10105
ENCODING 248
SWIDTH 323 0
DWIDTH 12 0
BBX 20 33 -6 -7
BITMAP
0000C0
0001E0
0003F0
0003F0
0001E0
0000C0
000000
000000
000000
000F00
003F80
007F80
00CF80
018F80
001F80
001F00
001F00
003F00
003E00
003E00
003E00
007E00
007C00
007C00
00FC00
00F800
00F800
00F000
61F000
F1E000
FBC000
7F8000
3C0000
ENDCHAR

STARTCHAR afii10106
ENCODING 249
SWIDTH 771 0
DWIDTH 29 0
BBX 28 18 -1 0
BITMAP
00007800
0007F800
001FF000
0031F000
0063F000
00C3E000
00C3E000
0187DFC0
0187FFE0
0107E3F0
0107C1F0
030F81F0
030F81F0
060F83F0
FE0F83E0
FC07C7E0
FC03FFC0
7800FE00
ENDCHAR

STARTCHAR afii10107
ENCODING 250
SWIDTH 823 0
DWIDTH 31 0
BBX 29 18 1 0
BITMAP
00C00C00
3FC7F800
7FC7F800
0F81F800
0F81F800
0F81F000
1F81F000
1F03EFE0
1FFFFFF0
1FFFF1F8
3E07E0F8
3E07C0F8
3E07C0F8
7E07C1F8
7C07C1F0
7C03E3F0
FC01FFC0
F8007F00
ENDCHAR

STARTCHAR afii10108
ENCODING 251
SWIDTH 625 0
DWIDTH 24 0
BBX 22 26 1 0
BITMAP
003800
0FF800
0FF000
01F000
01F000
0FFFF8
0FFFF8
03E000
07C000
07C7E0
07DFF8
0FFFF8
0FE0F8
0F80F8
1F81F8
1F01F0
1F01F0
3F03E0
3E03E0
3E07E0
7E07C0
7C0FCC
7C0F98
7C0FF0
F80FE0
F80FC0
ENDCHAR

STARTCHAR afii10109
ENCODING 252
SWIDTH 563 0
DWIDTH 21 0
BBX 20 27 1 0
BITMAP
000FC0
000FC0
001F80
001F00
001E00
003C00
003800
003000
000000
000000
03C0E0
3FC1F0
7FC3F0
0F83E0
0F8600
0F8E00
1F3C00
1FF800
1FFC00
3E7C00
3E3E00
3E3E00
7E3E00
7C1F00
7C1F00
7C1FC0
F80F80
ENDCHAR

STARTCHAR section
ENCODING 253
SWIDTH 594 0
DWIDTH 23 0
BBX 25 33 -2 -7
BITMAP
0000FF00
0007FF80
000F1F80
001E0F80
00340300
006C0000
00CC0000
00CC0000
01CE0000
018E0000
018E0000
01870000
01870000
01C38000
01C3C000
01C1C000
00E1C000
00E0E000
00F0E000
0070E000
00386000
00386000
001C6000
001C6000
000CE000
000CC000
000DC000
000D8000
300B0000
7C1E0000
FE3C0000
7FF00000
3FC00000
ENDCHAR

STARTCHAR afii10110
ENCODING 254
SWIDTH 552 0
DWIDTH 21 0
BBX 24 32 -3 -7
BITMAP
000E06
001F0C
001F98
000FF0
0007E0
000000
000000
000000
01F01E
03F83E
07F83F
06F83F
0CF81F
0CFC1E
007C1E
007C1C
007C1C
007E38
003E38
003E70
003E60
003F40
001F80
001F80
001F00
001E00
001C00
703000
FCE000
FFC000
FF8000
7E0000
ENDCHAR

STARTCHAR afii10193
ENCODING 255
SWIDTH 635 0
DWIDTH 24 0
BBX 24 24 -1 -7
BITMAP
03C03F
0FE03E
1FE03E
33E07E
63E07C
03E0FC
07C0FC
07C1F8
0FC1F8
0F82F8
0F82F0
1F85F0
1F0DF3
1F19E6
1F33FC
1FE3F8
0FC1F0
030000
0E0000
0E0000
1E0000
1E0000
FC0000
700000
ENDCHAR
ENDFONT
